# xmcd CD database file
#
# Track frame offsets:
#	150
#	17015
#	40580
#	57587
#
# Disc length: 1223 seconds
#
# Revision: 0
# Processed by: cddbd v1.5PL3 Copyright (c) Steve Scherf et al.
# Submitted via: CDex 1.51
#
DISCID=2a04c504
DTITLE=ワるきゅーレ(望月久代) - 円盤皇女ワるきゅーレ 〜十二月の夜想曲〜 キャラクターシングル ワるきゅーレ
DYEAR=2003
DGENRE=Anime
TTITLE0=Suki-Suki-Suki 〜和な感じ〜
TTITLE1=Suki-Suki-Suki 〜和な感じ〜(夕暮れヴァージョン)
TTITLE2=Suki-Suki-Suki 〜和な感じ〜(オリジナル・カラオケ)
TTITLE3=ワるちゃんのえにっき
EXTD=YEAR: 2003/11/19
EXTT0=
EXTT1=
EXTT2=
EXTT3=
PLAYORDER=
